<?xml version="1.0" encoding="UTF-8"?>
<svg version="1.1" xmlns="http://www.w3.org/2000/svg" width="128" height="128">
<path d="M0 0 C5.32402812 3.19241536 9.23231911 7.28274148 11.640625 13.05859375 C12.5363944 20.44348333 12.25856355 26.13815971 7.640625 32.05859375 C2.68387248 37.01534627 -0.89442515 39.19548402 -8.046875 39.43359375 C-14.11213774 39.36034178 -17.92840472 38.23373434 -22.359375 34.05859375 C-26.59624924 29.66633293 -27.70455611 25.61548161 -27.921875 19.55859375 C-27.67609571 13.97034892 -26.94337004 9.46565741 -23.359375 5.05859375 C-16.89774137 -0.80093311 -8.43325053 -3.36492281 0 0 Z M-20.171875 9.05859375 C-23.68121994 13.87140967 -24.07354505 18.2658811 -23.359375 24.05859375 C-20.82697118 29.02960865 -17.37076366 32.55289942 -12.359375 35.05859375 C-6.75467809 35.43224021 -3.17228997 35.26720373 1.640625 32.05859375 C5.56127366 28.18033048 7.4505767 24.92740206 8.015625 19.37109375 C7.93185707 14.31709556 5.93384577 10.80805418 2.640625 7.05859375 C-0.61008709 4.30977307 -3.66238649 3.14418883 -7.921875 2.62109375 C-13.2380708 3.29770049 -16.67938437 5.03572489 -20.171875 9.05859375 Z " fill="#FBFCFC" transform="translate(35.359375,42.94140625)"/>
<path d="M0 0 C11 0 11 0 14 2 C14.1875 5.5 14.1875 5.5 14 9 C13.81509993 11.32357511 13.81509993 11.32357511 16 14 C15.55555556 19.44444444 15.55555556 19.44444444 13 22 C8.65604929 22.27917421 4.35649033 22.08542138 0 22 C0 14.74 0 7.48 0 0 Z M5 4 C5 5.65 5 7.3 5 9 C6.65 8.67 8.3 8.34 10 8 C9.67 6.68 9.34 5.36 9 4 C7.68 4 6.36 4 5 4 Z M5 13 C5 14.65 5 16.3 5 18 C6.65 18 8.3 18 10 18 C10.33 17.01 10.66 16.02 11 15 C10.67 14.34 10.34 13.68 10 13 C8.35 13 6.7 13 5 13 Z " fill="#FCFDFD" transform="translate(69,51)"/>
<path d="M0 0 C4.35795402 1.30609304 8.01052866 2.97672375 11.875 5.375 C12.84179688 5.96023437 13.80859375 6.54546875 14.8046875 7.1484375 C15.52914062 7.75945313 16.25359375 8.37046875 17 9 C17 10.32 17 11.64 17 13 C14.7651871 14.831471 12.68913322 16.30981971 10.25 17.8125 C9.29867188 18.44188477 9.29867188 18.44188477 8.328125 19.08398438 C3.55975241 22.09898663 3.55975241 22.09898663 0.78417969 21.6081543 C0.19540039 21.40746338 -0.39337891 21.20677246 -1 21 C-1.02888146 17.68751813 -1.04675799 14.37506833 -1.0625 11.0625 C-1.07087891 10.11697266 -1.07925781 9.17144531 -1.08789062 8.19726562 C-1.09111328 7.29814453 -1.09433594 6.39902344 -1.09765625 5.47265625 C-1.10289307 4.64000244 -1.10812988 3.80734863 -1.11352539 2.94946289 C-1 1 -1 1 0 0 Z " fill="#FCFEFD" transform="translate(21,51)"/>
<path d="M0 0 C1.65 0 3.3 0 5 0 C5.64910154 1.58199631 6.29414694 3.16565724 6.9375 4.75 C7.29714844 5.63171875 7.65679687 6.5134375 8.02734375 7.421875 C8.85356576 9.61186104 9.49369943 11.71898271 10 14 C10.27714844 13.07316406 10.55429688 12.14632812 10.83984375 11.19140625 C11.20207031 9.99386719 11.56429687 8.79632813 11.9375 7.5625 C12.47697266 5.77005859 12.47697266 5.77005859 13.02734375 3.94140625 C14 1 14 1 15 0 C16.66617115 -0.04063832 18.33388095 -0.042721 20 0 C18.0827282 7.50931455 15.75950985 14.75803759 13 22 C11.02 22 9.04 22 7 22 C5.82828244 18.71010914 4.66348912 15.41780898 3.5 12.125 C3.16613281 11.18785156 2.83226563 10.25070313 2.48828125 9.28515625 C2.17246094 8.38925781 1.85664062 7.49335937 1.53125 6.5703125 C1.23798828 5.74289551 0.94472656 4.91547852 0.64257812 4.06298828 C0 2 0 2 0 0 Z " fill="#FBFDFD" transform="translate(85,51)"/>
<path d="M0 0 C1.21236328 0.04060547 1.21236328 0.04060547 2.44921875 0.08203125 C3.06410156 0.11683594 3.67898437 0.15164062 4.3125 0.1875 C4.6425 1.1775 4.9725 2.1675 5.3125 3.1875 C4.9825 3.8475 4.6525 4.5075 4.3125 5.1875 C2.3325 5.1875 0.3525 5.1875 -1.6875 5.1875 C-1.6875 5.8475 -1.6875 6.5075 -1.6875 7.1875 C-0.73875 7.620625 0.21 8.05375 1.1875 8.5 C4.3125 10.1875 4.3125 10.1875 6.3125 13.1875 C6.18227358 16.83383962 6.02779798 19.27191859 3.75 22.1875 C-0.00079871 23.72628921 -2.73187566 22.96565561 -6.6875 22.1875 C-7.6875 21.1875 -7.6875 21.1875 -7.75 18.625 C-7.729375 17.820625 -7.70875 17.01625 -7.6875 16.1875 C-5.0475 16.5175 -2.4075 16.8475 0.3125 17.1875 C-1.0238414 13.17847581 -3.18177032 12.37858105 -6.6875 10.1875 C-7.6875 9.1875 -7.6875 9.1875 -7.9375 6.3125 C-7.6875 3.1875 -7.6875 3.1875 -6.46484375 1.50390625 C-4.16603506 -0.19872788 -2.82767258 -0.12294229 0 0 Z " fill="#FBFDFC" transform="translate(113.6875,50.8125)"/>
<path d="M0 0 C3.96 0 7.92 0 12 0 C12 1.32 12 2.64 12 4 C9.69 4 7.38 4 5 4 C5 5.65 5 7.3 5 9 C6.98 9 8.96 9 11 9 C11 10.32 11 11.64 11 13 C9.02 13 7.04 13 5 13 C5 14.65 5 16.3 5 18 C7.64 18 10.28 18 13 18 C13 19.32 13 20.64 13 22 C8.71 22 4.42 22 0 22 C0 14.74 0 7.48 0 0 Z " fill="#FDFEFD" transform="translate(54,51)"/>
</svg>
